<svg width="32" height="46" viewBox="0 0 32 46" fill="none" xmlns="http://www.w3.org/2000/svg">
<path d="M30.081 9.24301C29.357 9.24301 28.771 9.82902 28.771 10.553H17.463V2.17802C17.463 1.45502 16.877 0.868011 16.153 0.868011C15.429 0.868011 14.843 1.45402 14.843 2.17802V10.553H3.58197C3.58197 9.83002 2.99597 9.24301 2.27197 9.24301C1.54797 9.24301 0.961975 9.82902 0.961975 10.553V26.785C0.961975 27.508 1.54797 28.095 2.27197 28.095C2.99597 28.095 3.58197 27.509 3.58197 26.786H14.843V44.419C14.843 45.142 15.429 45.729 16.153 45.729C16.877 45.729 17.463 45.143 17.463 44.419V26.786H28.771C28.771 27.509 29.357 28.095 30.081 28.095C30.805 28.095 31.391 27.509 31.391 26.785V10.553C31.391 9.82902 30.805 9.24301 30.081 9.24301ZM3.58398 25.476V11.863H14.845V25.476H3.58398ZM17.464 11.862H28.772V25.475H17.464V11.862Z" fill="#DC3E6B"/>
</svg>
