<svg width="40" height="46" viewBox="0 0 40 46" fill="none" xmlns="http://www.w3.org/2000/svg">
<path d="M39.451 44.418C39.451 43.695 38.865 43.109 38.141 43.108C35.328 43.108 32.76 42.071 30.784 40.367C32.374 38.332 33.414 35.849 33.668 33.133H33.734C34.095 33.133 34.388 32.84 34.388 32.478C34.388 32.116 34.095 31.823 33.734 31.823H31.115H26.858H24.239H23.585C23.224 31.823 22.931 32.116 22.931 32.478C22.931 32.84 23.224 33.133 23.585 33.133H24.306C24.56 35.849 25.6 38.332 27.19 40.367C25.213 42.071 22.646 43.108 19.832 43.108C19.108 43.108 18.522 43.694 18.522 44.418C18.522 45.142 19.108 45.728 19.832 45.728C23.343 45.728 26.541 44.416 28.987 42.27C31.434 44.416 34.631 45.728 38.141 45.728H38.142C38.865 45.727 39.451 45.141 39.451 44.418ZM31.033 33.134C30.806 35.088 30.08 36.884 28.986 38.403C27.893 36.884 27.167 35.088 26.94 33.134H31.033Z" fill="#399857"/>
<path d="M36.525 16.081V16.072C37.244 16.068 37.826 15.485 37.826 14.764C37.826 14.04 37.24 13.454 36.517 13.454C36.506 13.454 36.497 13.46 36.488 13.46C34.494 13.454 32.626 12.926 31.002 12.013L34.475 8.54102C34.73 8.28502 34.73 7.87201 34.474 7.61601C34.218 7.36001 33.805 7.36101 33.549 7.61501L29.88 11.284C28.862 10.54 27.971 9.63601 27.252 8.59901L30.893 4.95802C31.148 4.70202 31.148 4.28901 30.892 4.03301C30.636 3.77701 30.223 3.77801 29.967 4.03201L26.551 7.44901C25.717 5.87501 25.24 4.08302 25.24 2.17802C25.24 1.45402 24.654 0.868011 23.931 0.868011C23.207 0.868011 22.62 1.45402 22.62 2.17802C22.621 9.85602 28.846 16.081 36.525 16.081Z" fill="#399857"/>
<path d="M4.02399 15.939C11.26 15.939 17.201 10.409 17.861 3.34502H17.927C18.288 3.34502 18.581 3.05202 18.581 2.69002C18.581 2.32802 18.288 2.03502 17.927 2.03502H15.308H4.02399C3.66299 2.03502 3.37 2.32802 3.37 2.69002C3.37 3.05202 3.66299 3.34502 4.02399 3.34502H15.226C14.576 8.95902 9.81299 13.32 4.02399 13.32C3.29999 13.32 2.71399 13.906 2.71399 14.63C2.71399 15.354 3.30099 15.939 4.02399 15.939Z" fill="#399857"/>
<path d="M10.1729 10.429C10.4289 10.685 10.843 10.685 11.099 10.429C11.355 10.173 11.355 9.75901 11.099 9.50301L7.15995 5.56402L7.15897 5.56302C6.90297 5.30702 6.48895 5.30702 6.23295 5.56302C5.97695 5.81902 5.97697 6.23201 6.23197 6.48801L10.1729 10.429Z" fill="#399857"/>
<path d="M10.915 29.443C10.915 30.166 11.501 30.753 12.225 30.753C19.461 30.753 25.402 25.223 26.062 18.159H28.573V25.475C28.573 26.198 29.159 26.785 29.883 26.785H38.22C38.581 26.785 38.874 26.492 38.874 26.13C38.874 25.768 38.581 25.475 38.22 25.475H31.193V18.159H31.847C32.208 18.159 32.501 17.866 32.501 17.504C32.501 17.142 32.208 16.849 31.847 16.849H31.193H28.574H26.13H23.511C23.15 16.849 22.857 17.142 22.857 17.504C22.857 17.837 23.11 18.102 23.432 18.143C22.789 23.765 18.021 28.134 12.227 28.134C11.501 28.133 10.915 28.72 10.915 29.443Z" fill="#399857"/>
<path d="M15.987 31.824H13.367H5.39203V24.455H13.367C13.367 25.178 13.953 25.765 14.677 25.765C15.401 25.765 15.987 25.179 15.987 24.455L15.988 23.145L15.987 17.138C16.348 17.138 16.641 16.845 16.641 16.483C16.641 16.121 16.348 15.828 15.987 15.828H13.368H8.69397C8.33297 15.828 8.03998 16.121 8.03998 16.483C8.03998 16.845 8.33297 17.138 8.69397 17.138H13.368V23.145H5.39301C5.39301 22.422 4.80701 21.835 4.08301 21.835C3.35901 21.835 2.77301 22.421 2.77301 23.145V34.442C2.77301 35.165 3.35901 35.752 4.08301 35.752C4.80701 35.752 5.39301 35.166 5.39301 34.442V33.132H13.286C12.636 38.746 7.87298 43.107 2.08398 43.107C1.35998 43.107 0.773987 43.693 0.773987 44.417C0.773987 45.141 1.35998 45.727 2.08398 45.727C9.31998 45.727 15.261 40.197 15.921 33.133H15.988C16.348 33.132 16.641 32.84 16.641 32.478C16.641 32.116 16.348 31.825 15.987 31.824Z" fill="#399857"/>
</svg>
