<svg width="64" height="111" viewBox="0 0 64 111" fill="none" xmlns="http://www.w3.org/2000/svg">
<path d="M59.577 0.0920105H5.12201C2.81101 0.0920105 0.921021 1.982 0.921021 4.293V77.445C0.921021 79.756 2.81201 81.645 5.12201 81.645H59.577C61.888 81.645 63.778 79.755 63.778 77.445V4.293C63.778 1.981 61.888 0.0920105 59.577 0.0920105Z" fill="#F1D67F"/>
<path d="M59.577 15.8H5.12201C2.81101 15.8 0.921021 17.69 0.921021 20V93.152C0.921021 95.463 2.81201 97.353 5.12201 97.353H59.577C61.888 97.353 63.778 95.462 63.778 93.152V20C63.778 17.689 61.888 15.8 59.577 15.8Z" fill="#FCFADB"/>
<path d="M59.577 29.285H5.12201C2.81101 29.285 0.921021 31.175 0.921021 33.485V106.638C0.921021 108.949 2.81201 110.837 5.12201 110.837H59.577C61.888 110.837 63.778 108.948 63.778 106.638V33.485C63.778 31.175 61.888 29.285 59.577 29.285Z" fill="#EFEBD1"/>
<path d="M59.222 32.965H5.47803C4.55403 32.965 3.79602 33.721 3.79602 34.646V107.088C3.79602 108.012 4.55403 108.768 5.47803 108.768H59.222C60.146 108.768 60.904 108.012 60.904 107.088V34.646C60.903 33.721 60.146 32.965 59.222 32.965Z" fill="#FCFADB"/>
<path d="M5.12201 15.8V29.285L59.577 15.8H5.12201Z" fill="#FDFBE9"/>
<path d="M5.12201 0.0920105V15.8L59.577 0.0920105H5.12201Z" fill="#F2DB9A"/>
<path d="M5.47601 34.646H59.222L5.47601 107.088V34.646Z" fill="#FDFBE9"/>
</svg>
