<svg width="47" height="65" viewBox="0 0 47 65" fill="none" xmlns="http://www.w3.org/2000/svg">
<path d="M45.074 29.606V4.29002C45.798 4.29002 46.384 3.70402 46.384 2.98002C46.384 2.25602 45.798 1.67001 45.074 1.67001H35.995C35.272 1.67001 34.685 2.25602 34.685 2.98002C34.685 3.70402 35.272 4.29002 35.995 4.29002V29.606C35.272 29.606 34.685 30.192 34.685 30.916C34.685 31.64 35.272 32.226 35.995 32.226H45.074C45.798 32.226 46.384 31.64 46.384 30.916C46.384 30.192 45.798 29.606 45.074 29.606ZM43.765 29.606H40.535V4.29002H43.765V29.606Z" fill="#399857"/>
<path d="M11.194 17.042V3.13902C11.917 3.13902 12.505 2.55302 12.505 1.82902C12.505 1.10602 11.917 0.519012 11.194 0.519012H2.11399C1.39099 0.519012 0.804993 1.10502 0.804993 1.82902C0.804993 2.55302 1.39099 3.13902 2.11399 3.13902V17.042C1.39099 17.042 0.804993 17.628 0.804993 18.352C0.804993 19.076 1.39099 19.662 2.11399 19.662H11.194C11.917 19.662 12.505 19.076 12.505 18.352C12.505 17.628 11.917 17.042 11.194 17.042ZM6.65499 3.13902H9.88399V17.042H6.65499V3.13902Z" fill="#399857"/>
<path d="M26.518 22.336V8.43301C27.242 8.43301 27.829 7.84702 27.829 7.12302C27.829 6.39902 27.242 5.81302 26.518 5.81302H17.439C16.716 5.81302 16.129 6.39902 16.129 7.12302C16.129 7.84702 16.716 8.43301 17.439 8.43301V22.336C16.716 22.336 16.129 22.922 16.129 23.646C16.129 24.369 16.716 24.956 17.439 24.956H26.518C27.242 24.956 27.829 24.37 27.829 23.646C27.828 22.923 27.241 22.336 26.518 22.336ZM25.208 22.336H21.979V8.43301H25.208V22.336Z" fill="#DC3E6B"/>
<path d="M10.4952 36.0228C11.3044 35.5305 11.629 34.5868 11.2203 33.915C10.8116 33.2431 9.82428 33.0975 9.01511 33.5897C8.20595 34.082 7.88132 35.0257 8.29004 35.6975C8.69876 36.3694 9.68605 36.515 10.4952 36.0228Z" fill="#DC3E6B"/>
<path d="M40.501 48.475C41.024 48.429 41.436 48.258 41.707 47.945C43.202 46.217 39.884 40.899 34.3 36.069C32.528 34.536 30.743 33.244 29.081 32.239C26.061 30.059 22.171 29.129 18.276 29.977C16.393 26.91 12.671 25.283 9.001 26.221C4.899 27.269 2.287 31.161 2.711 35.249C1.272 35.72 0.28 36.506 0.435 37.114C0.59 37.72 1.837 37.927 3.324 37.65C4.173 39.675 5.751 41.236 7.668 42.089C7.549 43.546 7.653 45.043 8.035 46.538C9.197 51.082 12.533 54.493 16.645 55.948L14.18 61.343H11.992C10.459 61.343 9.217 62.586 9.217 64.119C9.217 64.368 9.418 64.57 9.667 64.57C9.916 64.57 10.118 64.368 10.118 64.119C10.118 63.2 10.78 62.439 11.651 62.278C11.213 62.769 10.939 63.409 10.939 64.119C10.939 64.368 11.141 64.57 11.39 64.57C11.639 64.57 11.841 64.368 11.841 64.119C11.841 63.2 12.503 62.439 13.374 62.278C12.936 62.769 12.662 63.409 12.662 64.119C12.662 64.368 12.864 64.57 13.112 64.57C13.361 64.57 13.563 64.368 13.563 64.119C13.563 63.083 14.403 62.244 15.438 62.244C15.687 62.243 15.888 62.041 15.888 61.793C15.888 61.544 15.686 61.343 15.438 61.342H15.172L17.515 56.212C19.724 56.83 22.117 56.906 24.498 56.297C24.707 56.243 24.905 56.17 25.11 56.107L22.718 61.342H20.53C18.997 61.342 17.755 62.585 17.755 64.118C17.755 64.367 17.956 64.569 18.205 64.569C18.454 64.569 18.655 64.367 18.655 64.118C18.655 63.199 19.317 62.438 20.189 62.277C19.751 62.768 19.477 63.408 19.477 64.118C19.477 64.367 19.678 64.569 19.928 64.569C20.176 64.569 20.378 64.367 20.378 64.118C20.378 63.199 21.039 62.438 21.911 62.277C21.473 62.768 21.199 63.408 21.199 64.118C21.199 64.367 21.401 64.569 21.65 64.569C21.899 64.569 22.101 64.367 22.101 64.118C22.101 63.082 22.94 62.243 23.975 62.243C24.224 62.243 24.426 62.041 24.426 61.792C24.426 61.543 24.224 61.341 23.975 61.341H23.709L26.293 55.685C26.9 55.436 27.483 55.152 28.036 54.825C28.738 55.138 29.465 55.43 30.239 55.679C36.222 57.596 41.856 56.71 42.822 53.699C43.345 52.083 42.402 50.185 40.501 48.475ZM29.227 34.547C29.533 34.029 29.38 33.382 28.907 33.031C29.197 33.003 29.497 33.059 29.767 33.219C30.439 33.619 30.662 34.488 30.263 35.161C29.864 35.835 28.993 36.057 28.32 35.658C28.05 35.498 27.858 35.262 27.744 34.994C28.278 35.24 28.92 35.065 29.227 34.547ZM28.683 37.892C28.99 37.374 28.835 36.726 28.362 36.376C28.652 36.348 28.952 36.403 29.222 36.563C29.896 36.963 30.118 37.833 29.719 38.505C29.32 39.179 28.45 39.402 27.777 39.002C27.507 38.842 27.314 38.606 27.2 38.338C27.733 38.586 28.375 38.411 28.683 37.892ZM26.663 40.596C26.97 40.078 26.816 39.431 26.343 39.08C26.633 39.052 26.933 39.107 27.202 39.267C27.876 39.666 28.098 40.537 27.699 41.209C27.3 41.883 26.43 42.105 25.757 41.706C25.487 41.546 25.294 41.31 25.18 41.042C25.714 41.29 26.356 41.114 26.663 40.596ZM24.06 42.94C24.367 42.423 24.212 41.775 23.74 41.424C24.03 41.395 24.33 41.451 24.599 41.611C25.273 42.01 25.495 42.88 25.096 43.554C24.697 44.228 23.827 44.45 23.154 44.051C22.884 43.891 22.691 43.654 22.576 43.386C23.11 43.634 23.752 43.459 24.06 42.94ZM6.236 32.642C6.747 32.512 7.266 32.82 7.396 33.33C7.526 33.84 7.219 34.36 6.708 34.49C6.197 34.62 5.678 34.313 5.548 33.802C5.419 33.292 5.726 32.772 6.236 32.642ZM23.407 54.81C17.082 56.427 10.643 52.61 9.026 46.285C8.611 44.664 8.559 43.037 8.809 41.484C7.367 41.019 6.088 40.119 5.159 38.903C5.06 38.757 4.972 38.601 4.903 38.433C4.405 37.232 4.716 35.864 5.588 34.745C5.935 35.005 6.389 35.117 6.841 35.001C7.633 34.798 8.112 33.991 7.909 33.198C7.894 33.14 7.87 33.089 7.849 33.035C7.864 33.029 7.876 33.019 7.891 33.014C9.65 32.285 11.498 32.48 12.716 33.361C13.843 32.373 14.398 30.812 14.001 29.26C13.772 28.362 13.253 27.621 12.58 27.083C14.722 27.522 16.598 28.894 17.653 30.86C17.784 31.104 17.901 31.357 18.007 31.617C18.017 31.642 18.029 31.666 18.039 31.691C18.147 31.965 18.242 32.248 18.316 32.541C19.199 35.994 17.512 39.498 14.457 41.041C15.834 42.892 18.085 44.371 20.829 44.985C24.327 45.769 27.707 44.949 29.799 43.089C30.605 43.748 31.406 44.35 32.195 44.903C31.579 49.548 28.226 53.578 23.407 54.81Z" fill="#4D5050"/>
</svg>
