<svg width="50" height="63" viewBox="0 0 50 63" fill="none" xmlns="http://www.w3.org/2000/svg">
<path d="M11.266 38.25V24.347C11.989 24.347 12.577 23.761 12.577 23.037C12.577 22.313 11.989 21.727 11.266 21.727H2.18597C1.46297 21.727 0.877014 22.313 0.877014 23.037C0.877014 23.761 1.46297 24.347 2.18597 24.347V38.25C1.46297 38.25 0.877014 38.836 0.877014 39.56C0.877014 40.283 1.46297 40.87 2.18597 40.87H11.266C11.989 40.87 12.577 40.284 12.577 39.56C12.576 38.836 11.988 38.25 11.266 38.25ZM9.95502 38.25H6.72601V24.347H9.95502V38.25Z" fill="#399857"/>
<path d="M11.266 16.961V3.05801C11.989 3.05801 12.577 2.47202 12.577 1.74802C12.577 1.02402 11.989 0.438019 11.266 0.438019H2.18597C1.46297 0.438019 0.877014 1.02402 0.877014 1.74802C0.877014 2.47202 1.46297 3.05801 2.18597 3.05801V16.961C1.46297 16.961 0.877014 17.547 0.877014 18.271C0.877014 18.994 1.46297 19.581 2.18597 19.581H11.266C11.989 19.581 12.577 18.995 12.577 18.271C12.576 17.548 11.988 16.961 11.266 16.961ZM9.95502 16.961H6.72601V3.05801H9.95502V16.961Z" fill="#399857"/>
<path d="M11.266 59.538V45.635C11.989 45.635 12.577 45.049 12.577 44.325C12.577 43.601 11.989 43.015 11.266 43.015H2.18597C1.46297 43.015 0.877014 43.601 0.877014 44.325C0.877014 45.049 1.46297 45.635 2.18597 45.635V59.538C1.46297 59.538 0.877014 60.124 0.877014 60.848C0.877014 61.571 1.46297 62.158 2.18597 62.158H11.266C11.989 62.158 12.577 61.572 12.577 60.848C12.576 60.124 11.988 59.538 11.266 59.538ZM9.95502 59.538H6.72601V45.635H9.95502V59.538Z" fill="#399857"/>
<path d="M47.955 38.25V24.347C48.678 24.347 49.266 23.761 49.266 23.037C49.266 22.313 48.678 21.727 47.955 21.727H38.875C38.152 21.727 37.566 22.313 37.566 23.037C37.566 23.761 38.152 24.347 38.875 24.347V38.25C38.152 38.25 37.566 38.836 37.566 39.56C37.566 40.283 38.152 40.87 38.875 40.87H47.955C48.678 40.87 49.266 40.284 49.266 39.56C49.266 38.836 48.678 38.25 47.955 38.25ZM46.645 38.25H43.416V24.347H46.645V38.25Z" fill="#399857"/>
<path d="M47.955 16.961V3.05801C48.678 3.05801 49.266 2.47202 49.266 1.74802C49.266 1.02402 48.678 0.438019 47.955 0.438019H38.875C38.152 0.438019 37.566 1.02402 37.566 1.74802C37.566 2.47202 38.152 3.05801 38.875 3.05801V16.961C38.152 16.961 37.566 17.547 37.566 18.271C37.566 18.994 38.152 19.581 38.875 19.581H47.955C48.678 19.581 49.266 18.995 49.266 18.271C49.266 17.548 48.678 16.961 47.955 16.961ZM46.645 16.961H43.416V3.05801H46.645V16.961Z" fill="#399857"/>
<path d="M47.955 59.538V45.635C48.678 45.635 49.266 45.049 49.266 44.325C49.266 43.601 48.678 43.015 47.955 43.015H38.875C38.152 43.015 37.566 43.601 37.566 44.325C37.566 45.049 38.152 45.635 38.875 45.635V59.538C38.152 59.538 37.566 60.124 37.566 60.848C37.566 61.571 38.152 62.158 38.875 62.158H47.955C48.678 62.158 49.266 61.572 49.266 60.848C49.266 60.124 48.678 59.538 47.955 59.538ZM46.645 59.538H43.416V45.635H46.645V59.538Z" fill="#399857"/>
<path d="M30.823 37.285L28.238 23.624C28.949 23.49 29.417 22.804 29.283 22.094C29.148 21.384 28.462 20.916 27.752 21.051L18.83 22.739C18.12 22.873 17.653 23.558 17.788 24.269C17.922 24.979 18.607 25.447 19.317 25.312L21.901 38.973C21.191 39.107 20.724 39.792 20.859 40.503C20.994 41.214 21.678 41.681 22.388 41.546L31.31 39.858C32.02 39.724 32.489 39.038 32.354 38.328C32.221 37.617 31.533 37.15 30.823 37.285ZM29.536 37.528L26.363 38.128L23.779 24.467L26.951 23.867L29.536 37.528Z" fill="#DC3E6B"/>
<path d="M26.866 16.368L24.281 2.70701C24.991 2.57301 25.46 1.88701 25.325 1.17701C25.19 0.46701 24.504 -0.000989072 23.794 0.134011L14.872 1.82201C14.162 1.95601 13.695 2.64101 13.83 3.35201C13.964 4.06301 14.649 4.53 15.359 4.395L17.944 18.056C17.234 18.19 16.767 18.875 16.901 19.586C17.036 20.297 17.72 20.764 18.43 20.629L27.352 18.941C28.062 18.807 28.531 18.121 28.397 17.411C28.263 16.7 27.576 16.233 26.866 16.368ZM25.578 16.611L22.406 17.211L19.821 3.55001L22.993 2.95001L25.578 16.611Z" fill="#DC3E6B"/>
<path d="M34.781 58.201L32.196 44.54C32.906 44.406 33.375 43.72 33.241 43.01C33.106 42.299 32.42 41.832 31.71 41.967L22.788 43.655C22.078 43.789 21.611 44.474 21.745 45.185C21.88 45.895 22.564 46.363 23.274 46.228L25.859 59.889C25.149 60.023 24.682 60.708 24.817 61.419C24.952 62.129 25.636 62.597 26.346 62.462L35.268 60.774C35.978 60.64 36.447 59.954 36.312 59.244C36.178 58.534 35.491 58.067 34.781 58.201ZM33.494 58.445L30.321 59.046L27.736 45.385L30.909 44.785L33.494 58.445Z" fill="#DC3E6B"/>
</svg>
