<svg width="13" height="64" viewBox="0 0 13 64" fill="none" xmlns="http://www.w3.org/2000/svg">
<path d="M11.316 28.606V3.29002C12.04 3.29002 12.626 2.70402 12.626 1.98002C12.626 1.25602 12.04 0.670013 11.316 0.670013H2.237C1.514 0.670013 0.927002 1.25602 0.927002 1.98002C0.927002 2.70402 1.514 3.29002 2.237 3.29002V28.606C1.514 28.606 0.927002 29.192 0.927002 29.916C0.927002 30.64 1.514 31.226 2.237 31.226H11.316C12.04 31.226 12.626 30.64 12.626 29.916C12.626 29.192 12.04 28.606 11.316 28.606ZM10.007 28.606H6.777V3.29002H10.007V28.606Z" fill="#399857"/>
<path d="M11.316 61.307V35.991C12.04 35.991 12.626 35.405 12.626 34.681C12.626 33.957 12.04 33.371 11.316 33.371H2.237C1.514 33.371 0.927002 33.957 0.927002 34.681C0.927002 35.405 1.514 35.991 2.237 35.991V61.307C1.514 61.307 0.927002 61.893 0.927002 62.617C0.927002 63.341 1.514 63.927 2.237 63.927H11.316C12.04 63.927 12.626 63.341 12.626 62.617C12.626 61.893 12.04 61.307 11.316 61.307ZM10.007 61.307H6.777V35.991H10.007V61.307Z" fill="#399857"/>
</svg>
