<svg width="46" height="64" viewBox="0 0 46 64" fill="none" xmlns="http://www.w3.org/2000/svg">
<path d="M11.098 28.606V3.29002C11.822 3.29002 12.408 2.70402 12.408 1.98002C12.408 1.25602 11.822 0.670013 11.098 0.670013H2.01901C1.29601 0.670013 0.709015 1.25602 0.709015 1.98002C0.709015 2.70402 1.29601 3.29002 2.01901 3.29002V28.606C1.29601 28.606 0.709015 29.192 0.709015 29.916C0.709015 30.64 1.29601 31.226 2.01901 31.226H11.098C11.822 31.226 12.408 30.64 12.408 29.916C12.408 29.192 11.822 28.606 11.098 28.606ZM9.789 28.606H6.55899V3.29002H9.789V28.606Z" fill="#399857"/>
<path d="M11.098 61.307V35.991C11.822 35.991 12.408 35.405 12.408 34.681C12.408 33.957 11.822 33.371 11.098 33.371H2.01901C1.29601 33.371 0.709015 33.957 0.709015 34.681C0.709015 35.405 1.29601 35.991 2.01901 35.991V61.307C1.29601 61.307 0.709015 61.893 0.709015 62.617C0.709015 63.341 1.29601 63.927 2.01901 63.927H11.098C11.822 63.927 12.408 63.341 12.408 62.617C12.408 61.893 11.822 61.307 11.098 61.307ZM9.789 61.307H6.55899V35.991H9.789V61.307Z" fill="#399857"/>
<path d="M43.787 28.606V3.29002C44.511 3.29002 45.097 2.70402 45.097 1.98002C45.097 1.25602 44.511 0.670013 43.787 0.670013H34.708C33.985 0.670013 33.398 1.25602 33.398 1.98002C33.398 2.70402 33.985 3.29002 34.708 3.29002V28.606C33.985 28.606 33.398 29.192 33.398 29.916C33.398 30.64 33.985 31.226 34.708 31.226H43.787C44.511 31.226 45.097 30.64 45.097 29.916C45.097 29.192 44.51 28.606 43.787 28.606ZM42.477 28.606H39.247V3.29002H42.477V28.606Z" fill="#399857"/>
<path d="M43.787 61.307V35.991C44.511 35.991 45.097 35.405 45.097 34.681C45.097 33.957 44.511 33.371 43.787 33.371H34.708C33.985 33.371 33.398 33.957 33.398 34.681C33.398 35.405 33.985 35.991 34.708 35.991V61.307C33.985 61.307 33.398 61.893 33.398 62.617C33.398 63.341 33.985 63.927 34.708 63.927H43.787C44.511 63.927 45.097 63.341 45.097 62.617C45.097 61.893 44.51 61.307 43.787 61.307ZM42.477 61.307H39.247V35.991H42.477V61.307Z" fill="#399857"/>
<path d="M27.442 39.25V25.347C28.166 25.347 28.753 24.761 28.753 24.037C28.753 23.313 28.166 22.727 27.442 22.727H18.363C17.64 22.727 17.053 23.313 17.053 24.037C17.053 24.761 17.64 25.347 18.363 25.347V39.25C17.64 39.25 17.053 39.836 17.053 40.56C17.053 41.283 17.64 41.87 18.363 41.87H27.442C28.166 41.87 28.753 41.284 28.753 40.56C28.753 39.836 28.166 39.25 27.442 39.25ZM26.133 39.25H22.904V25.347H26.133V39.25Z" fill="#DC3E6B"/>
</svg>
