<svg width="46" height="64" viewBox="0 0 46 64" fill="none" xmlns="http://www.w3.org/2000/svg">
<path d="M11.14 28.606V3.29002C11.864 3.29002 12.45 2.70402 12.45 1.98002C12.45 1.25602 11.864 0.670013 11.14 0.670013H2.061C1.338 0.670013 0.751007 1.25602 0.751007 1.98002C0.751007 2.70402 1.338 3.29002 2.061 3.29002V28.606C1.338 28.606 0.751007 29.192 0.751007 29.916C0.751007 30.64 1.338 31.226 2.061 31.226H11.14C11.864 31.226 12.45 30.64 12.45 29.916C12.45 29.192 11.864 28.606 11.14 28.606ZM9.83099 28.606H6.60101V3.29002H9.83099V28.606Z" fill="#399857"/>
<path d="M11.14 61.307V35.991C11.864 35.991 12.45 35.405 12.45 34.681C12.45 33.957 11.864 33.371 11.14 33.371H2.061C1.338 33.371 0.751007 33.957 0.751007 34.681C0.751007 35.405 1.338 35.991 2.061 35.991V61.307C1.338 61.307 0.751007 61.893 0.751007 62.617C0.751007 63.341 1.338 63.927 2.061 63.927H11.14C11.864 63.927 12.45 63.341 12.45 62.617C12.45 61.893 11.864 61.307 11.14 61.307ZM9.83099 61.307H6.60101V35.991H9.83099V61.307Z" fill="#399857"/>
<path d="M27.484 28.606V3.29002C28.209 3.29002 28.795 2.70402 28.795 1.98002C28.795 1.25602 28.209 0.670013 27.484 0.670013H18.405C17.682 0.670013 17.095 1.25602 17.095 1.98002C17.095 2.70402 17.682 3.29002 18.405 3.29002V28.606C17.682 28.606 17.095 29.192 17.095 29.916C17.095 30.64 17.682 31.226 18.405 31.226H27.484C28.209 31.226 28.795 30.64 28.795 29.916C28.795 29.192 28.209 28.606 27.484 28.606ZM26.176 28.606H22.945V3.29002H26.176V28.606Z" fill="#399857"/>
<path d="M27.484 61.307V35.991C28.209 35.991 28.795 35.405 28.795 34.681C28.795 33.957 28.209 33.371 27.484 33.371H18.405C17.682 33.371 17.095 33.957 17.095 34.681C17.095 35.405 17.682 35.991 18.405 35.991V61.307C17.682 61.307 17.095 61.893 17.095 62.617C17.095 63.341 17.682 63.927 18.405 63.927H27.484C28.209 63.927 28.795 63.341 28.795 62.617C28.795 61.893 28.209 61.307 27.484 61.307ZM26.176 61.307H22.945V35.991H26.176V61.307Z" fill="#399857"/>
<path d="M43.829 28.606V3.29002C44.554 3.29002 45.14 2.70402 45.14 1.98002C45.14 1.25602 44.554 0.670013 43.829 0.670013H34.75C34.027 0.670013 33.441 1.25602 33.441 1.98002C33.441 2.70402 34.027 3.29002 34.75 3.29002V28.606C34.027 28.606 33.441 29.192 33.441 29.916C33.441 30.64 34.027 31.226 34.75 31.226H43.829C44.554 31.226 45.14 30.64 45.14 29.916C45.14 29.192 44.554 28.606 43.829 28.606ZM42.521 28.606H39.29V3.29002H42.521V28.606Z" fill="#399857"/>
<path d="M43.829 61.307V35.991C44.554 35.991 45.14 35.405 45.14 34.681C45.14 33.957 44.554 33.371 43.829 33.371H34.75C34.027 33.371 33.441 33.957 33.441 34.681C33.441 35.405 34.027 35.991 34.75 35.991V61.307C34.027 61.307 33.441 61.893 33.441 62.617C33.441 63.341 34.027 63.927 34.75 63.927H43.829C44.554 63.927 45.14 63.341 45.14 62.617C45.14 61.893 44.554 61.307 43.829 61.307ZM42.521 61.307H39.29V35.991H42.521V61.307Z" fill="#399857"/>
</svg>
