<svg width="46" height="63" viewBox="0 0 46 63" fill="none" xmlns="http://www.w3.org/2000/svg">
<path d="M27.525 16.961V3.05801C28.248 3.05801 28.836 2.47202 28.836 1.74802C28.836 1.02402 28.248 0.438019 27.525 0.438019H18.445C17.722 0.438019 17.136 1.02402 17.136 1.74802C17.136 2.47202 17.722 3.05801 18.445 3.05801V16.961C17.722 16.961 17.136 17.547 17.136 18.271C17.136 18.994 17.722 19.581 18.445 19.581H27.525C28.248 19.581 28.836 18.995 28.836 18.271C28.836 17.548 28.248 16.961 27.525 16.961ZM26.215 16.961H22.986V3.05801H26.215V16.961Z" fill="#DC3E6B"/>
<path d="M27.525 59.538V45.635C28.248 45.635 28.836 45.049 28.836 44.325C28.836 43.601 28.248 43.015 27.525 43.015H18.445C17.722 43.015 17.136 43.601 17.136 44.325C17.136 45.049 17.722 45.635 18.445 45.635V59.538C17.722 59.538 17.136 60.124 17.136 60.848C17.136 61.571 17.722 62.158 18.445 62.158H27.525C28.248 62.158 28.836 61.572 28.836 60.848C28.836 60.124 28.248 59.538 27.525 59.538ZM26.215 59.538H22.986V45.635H26.215V59.538Z" fill="#399857"/>
<path d="M11.181 38.25V24.347C11.904 24.347 12.492 23.761 12.492 23.037C12.492 22.313 11.904 21.727 11.181 21.727H2.10101C1.37801 21.727 0.791992 22.313 0.791992 23.037C0.791992 23.761 1.37801 24.347 2.10101 24.347V38.25C1.37801 38.25 0.791992 38.836 0.791992 39.56C0.791992 40.283 1.37801 40.87 2.10101 40.87H11.181C11.904 40.87 12.492 40.284 12.492 39.56C12.491 38.836 11.903 38.25 11.181 38.25ZM9.87 38.25H6.64099V24.347H9.87V38.25Z" fill="#399857"/>
<path d="M11.181 59.538V45.635C11.904 45.635 12.492 45.049 12.492 44.325C12.492 43.601 11.904 43.015 11.181 43.015H2.10101C1.37801 43.015 0.791992 43.601 0.791992 44.325C0.791992 45.049 1.37801 45.635 2.10101 45.635V59.538C1.37801 59.538 0.791992 60.124 0.791992 60.848C0.791992 61.571 1.37801 62.158 2.10101 62.158H11.181C11.904 62.158 12.492 61.572 12.492 60.848C12.491 60.124 11.903 59.538 11.181 59.538ZM9.87 59.538H6.64099V45.635H9.87V59.538Z" fill="#399857"/>
<path d="M43.87 38.25V24.347C44.593 24.347 45.181 23.761 45.181 23.037C45.181 22.313 44.593 21.727 43.87 21.727H34.79C34.067 21.727 33.481 22.313 33.481 23.037C33.481 23.761 34.067 24.347 34.79 24.347V38.25C34.067 38.25 33.481 38.836 33.481 39.56C33.481 40.283 34.067 40.87 34.79 40.87H43.87C44.593 40.87 45.181 40.284 45.181 39.56C45.181 38.836 44.593 38.25 43.87 38.25ZM42.56 38.25H39.331V24.347H42.56V38.25Z" fill="#399857"/>
<path d="M43.87 59.538V45.635C44.593 45.635 45.181 45.049 45.181 44.325C45.181 43.601 44.593 43.015 43.87 43.015H34.79C34.067 43.015 33.481 43.601 33.481 44.325C33.481 45.049 34.067 45.635 34.79 45.635V59.538C34.067 59.538 33.481 60.124 33.481 60.848C33.481 61.571 34.067 62.158 34.79 62.158H43.87C44.593 62.158 45.181 61.572 45.181 60.848C45.181 60.124 44.593 59.538 43.87 59.538ZM42.56 59.538H39.331V45.635H42.56V59.538Z" fill="#399857"/>
</svg>
