<svg width="54" height="64" viewBox="0 0 54 64" fill="none" xmlns="http://www.w3.org/2000/svg">
<path d="M24.793 23.72L22.156 10.069C22.866 9.93201 23.33 9.24501 23.193 8.53501C23.055 7.82501 22.369 7.36001 21.659 7.49801L12.745 9.22001C12.035 9.35701 11.57 10.044 11.707 10.754C11.845 11.464 12.532 11.928 13.241 11.792L15.879 25.444C15.169 25.582 14.704 26.268 14.841 26.978C14.979 27.688 15.666 28.152 16.375 28.015L25.289 26.293C26 26.156 26.464 25.469 26.327 24.759C26.189 24.047 25.503 23.583 24.793 23.72ZM20.336 24.581L17.699 10.93L20.87 10.318L23.507 23.969L20.336 24.581Z" fill="#399857"/>
<path d="M42.348 10.753C42.485 10.043 42.021 9.35601 41.31 9.21901L32.396 7.49701C31.687 7.36001 31 7.82401 30.862 8.53401C30.725 9.24401 31.19 9.93001 31.9 10.068L29.263 23.72C28.554 23.583 27.866 24.048 27.728 24.758C27.591 25.468 28.056 26.155 28.766 26.292L37.68 28.014C38.39 28.152 39.076 27.687 39.214 26.977C39.351 26.267 38.887 25.58 38.177 25.443L40.813 11.792C40.814 11.792 40.814 11.792 40.814 11.792C41.523 11.928 42.21 11.463 42.348 10.753ZM39.527 11.542L36.89 25.193L33.719 24.581L36.356 10.93L39.527 11.542Z" fill="#399857"/>
<path d="M26.327 39.839C26.464 39.129 26 38.442 25.289 38.305L16.375 36.583C15.666 36.446 14.979 36.91 14.841 37.62C14.704 38.33 15.169 39.016 15.879 39.154L13.242 52.806C12.533 52.669 11.845 53.134 11.707 53.844C11.57 54.554 12.035 55.241 12.745 55.378L21.659 57.1C22.369 57.238 23.055 56.773 23.193 56.063C23.33 55.353 22.866 54.666 22.156 54.529L24.792 40.878C24.793 40.878 24.793 40.878 24.793 40.878C25.503 41.014 26.189 40.549 26.327 39.839ZM23.507 40.628L20.87 54.279L17.699 53.667L20.336 40.016L23.507 40.628Z" fill="#399857"/>
<path d="M40.813 52.806L38.176 39.155C38.886 39.018 39.35 38.331 39.213 37.621C39.075 36.911 38.389 36.446 37.679 36.584L28.765 38.306C28.055 38.443 27.59 39.13 27.727 39.84C27.865 40.55 28.552 41.014 29.261 40.878H29.262L31.899 54.53C31.189 54.668 30.724 55.354 30.861 56.064C30.999 56.774 31.686 57.238 32.395 57.101L41.309 55.379C42.02 55.242 42.484 54.555 42.347 53.845C42.21 53.134 41.523 52.669 40.813 52.806ZM36.356 53.667L33.719 40.016L36.89 39.404L39.527 53.055L36.356 53.667Z" fill="#399857"/>
<path d="M11.222 28.606V3.29002C11.947 3.29002 12.533 2.70402 12.533 1.98002C12.533 1.25602 11.947 0.670013 11.222 0.670013H2.14301C1.42001 0.670013 0.833984 1.25602 0.833984 1.98002C0.833984 2.70402 1.42001 3.29002 2.14301 3.29002V28.606C1.42001 28.606 0.833984 29.192 0.833984 29.916C0.833984 30.64 1.42001 31.226 2.14301 31.226H11.222C11.947 31.226 12.533 30.64 12.533 29.916C12.533 29.192 11.946 28.606 11.222 28.606ZM9.91302 28.606H6.68201V3.29002H9.91302V28.606Z" fill="#399857"/>
<path d="M11.222 61.307V35.991C11.947 35.991 12.533 35.405 12.533 34.681C12.533 33.957 11.947 33.371 11.222 33.371H2.14301C1.42001 33.371 0.833984 33.957 0.833984 34.681C0.833984 35.405 1.42001 35.991 2.14301 35.991V61.307C1.42001 61.307 0.833984 61.893 0.833984 62.617C0.833984 63.341 1.42001 63.927 2.14301 63.927H11.222C11.947 63.927 12.533 63.341 12.533 62.617C12.533 61.893 11.946 61.307 11.222 61.307ZM9.91302 61.307H6.68201V35.991H9.91302V61.307Z" fill="#399857"/>
<path d="M51.911 28.606V3.29002C52.636 3.29002 53.222 2.70402 53.222 1.98002C53.222 1.25602 52.636 0.670013 51.911 0.670013H42.832C42.109 0.670013 41.523 1.25602 41.523 1.98002C41.523 2.70402 42.109 3.29002 42.832 3.29002V28.606C42.109 28.606 41.523 29.192 41.523 29.916C41.523 30.64 42.109 31.226 42.832 31.226H51.911C52.636 31.226 53.222 30.64 53.222 29.916C53.222 29.192 52.636 28.606 51.911 28.606ZM50.603 28.606H47.372V3.29002H50.603V28.606Z" fill="#399857"/>
<path d="M51.911 61.307V35.991C52.636 35.991 53.222 35.405 53.222 34.681C53.222 33.957 52.636 33.371 51.911 33.371H42.832C42.109 33.371 41.523 33.957 41.523 34.681C41.523 35.405 42.109 35.991 42.832 35.991V61.307C42.109 61.307 41.523 61.893 41.523 62.617C41.523 63.341 42.109 63.927 42.832 63.927H51.911C52.636 63.927 53.222 63.341 53.222 62.617C53.222 61.893 52.636 61.307 51.911 61.307ZM50.603 61.307H47.372V35.991H50.603V61.307Z" fill="#399857"/>
</svg>
