<svg width="31" height="64" viewBox="0 0 31 64" fill="none" xmlns="http://www.w3.org/2000/svg">
<path d="M20.359 28.606V3.29002C21.083 3.29002 21.669 2.70402 21.669 1.98002C21.669 1.25602 21.083 0.670013 20.359 0.670013H11.28C10.557 0.670013 9.97003 1.25602 9.97003 1.98002C9.97003 2.70402 10.557 3.29002 11.28 3.29002V28.606C10.557 28.606 9.97003 29.192 9.97003 29.916C9.97003 30.64 10.557 31.226 11.28 31.226H20.359C21.083 31.226 21.669 30.64 21.669 29.916C21.669 29.192 21.083 28.606 20.359 28.606ZM19.049 28.606H15.819V3.29002H19.049V28.606Z" fill="#399857"/>
<path d="M11.28 61.307V35.991C12.004 35.991 12.59 35.405 12.59 34.681C12.59 33.957 12.004 33.371 11.28 33.371H2.20102C1.47802 33.371 0.891022 33.957 0.891022 34.681C0.891022 35.405 1.47802 35.991 2.20102 35.991V61.307C1.47802 61.307 0.891022 61.893 0.891022 62.617C0.891022 63.341 1.47802 63.927 2.20102 63.927H11.28C12.004 63.927 12.59 63.341 12.59 62.617C12.59 61.893 12.003 61.307 11.28 61.307ZM9.97002 61.307H6.74002V35.991H9.97002V61.307Z" fill="#399857"/>
<path d="M29.437 61.307V35.991C30.161 35.991 30.747 35.405 30.747 34.681C30.747 33.957 30.161 33.371 29.437 33.371H20.358C19.635 33.371 19.048 33.957 19.048 34.681C19.048 35.405 19.635 35.991 20.358 35.991V61.307C19.635 61.307 19.048 61.893 19.048 62.617C19.048 63.341 19.635 63.927 20.358 63.927H29.437C30.161 63.927 30.747 63.341 30.747 62.617C30.747 61.893 30.161 61.307 29.437 61.307ZM28.127 61.307H24.897V35.991H28.127V61.307Z" fill="#399857"/>
</svg>
