<svg width="40" height="64" viewBox="0 0 40 64" fill="none" xmlns="http://www.w3.org/2000/svg">
<path d="M10.968 28.606V3.29002C11.692 3.29002 12.278 2.70402 12.278 1.98002C12.278 1.25602 11.692 0.670013 10.968 0.670013H1.88902C1.16602 0.670013 0.57901 1.25602 0.57901 1.98002C0.57901 2.70402 1.16602 3.29002 1.88902 3.29002V28.606C1.16602 28.606 0.57901 29.192 0.57901 29.916C0.57901 30.64 1.16602 31.226 1.88902 31.226H10.968C11.692 31.226 12.278 30.64 12.278 29.916C12.278 29.192 11.692 28.606 10.968 28.606ZM9.65901 28.606H6.42902V3.29002H9.65901V28.606Z" fill="#399857"/>
<path d="M10.968 61.307V35.991C11.692 35.991 12.278 35.405 12.278 34.681C12.278 33.957 11.692 33.371 10.968 33.371H1.88902C1.16602 33.371 0.57901 33.957 0.57901 34.681C0.57901 35.405 1.16602 35.991 1.88902 35.991V61.307C1.16602 61.307 0.57901 61.893 0.57901 62.617C0.57901 63.341 1.16602 63.927 1.88902 63.927H10.968C11.692 63.927 12.278 63.341 12.278 62.617C12.278 61.893 11.692 61.307 10.968 61.307ZM9.65901 61.307H6.42902V35.991H9.65901V61.307Z" fill="#399857"/>
<path d="M37.832 28.606V3.29002C38.556 3.29002 39.142 2.70402 39.142 1.98002C39.142 1.25602 38.556 0.670013 37.832 0.670013H28.753C28.03 0.670013 27.443 1.25602 27.443 1.98002C27.443 2.70402 28.03 3.29002 28.753 3.29002V28.606C28.03 28.606 27.443 29.192 27.443 29.916C27.443 30.64 28.03 31.226 28.753 31.226H37.832C38.556 31.226 39.142 30.64 39.142 29.916C39.142 29.192 38.555 28.606 37.832 28.606ZM36.522 28.606H33.292V3.29002H36.522V28.606Z" fill="#399857"/>
<path d="M37.832 61.307V35.991C38.556 35.991 39.142 35.405 39.142 34.681C39.142 33.957 38.556 33.371 37.832 33.371H28.753C28.03 33.371 27.443 33.957 27.443 34.681C27.443 35.405 28.03 35.991 28.753 35.991V61.307C28.03 61.307 27.443 61.893 27.443 62.617C27.443 63.341 28.03 63.927 28.753 63.927H37.832C38.556 63.927 39.142 63.341 39.142 62.617C39.142 61.893 38.555 61.307 37.832 61.307ZM36.522 61.307H33.292V35.991H36.522V61.307Z" fill="#399857"/>
</svg>
